<?xml version="1.0" encoding="utf-8" ?><svg xmlns="http://www.w3.org/2000/svg" xmlns:xlink="http://www.w3.org/1999/xlink" width="1024" height="1024" viewBox="0 0 1024 1024"><path fill="white" d="M0 0L1024 0L1024 1024L0 1024L0 0Z"/><path fill="#0E2FF4" d="M341.221 557.161L341.792 557.152C355.775 557.021 369.759 556.978 383.743 557.025C390.473 557.025 397.243 557.036 403.911 557.137C418.955 557.364 430.259 569.266 430.383 584.2C430.451 592.356 430.462 600.628 430.458 608.84L430.481 662.563L578.357 662.638C597.761 662.627 613.094 657.547 626.981 643.452C648.448 621.663 645.011 597.333 644.835 569.408C659.079 569.342 680.952 574.436 693.866 579.528C693.804 604.677 694.147 621.347 683.378 645.376C670.687 673.928 647.016 696.154 617.721 707.022C606.926 710.993 595.555 713.173 584.057 713.478C571.361 713.877 557.427 713.672 544.65 713.729L464.141 713.814L427.035 713.851C410.585 713.901 397.511 716.916 388.086 700.392C380.27 686.69 382.236 673.093 382.188 657.808L382.004 605.772C370.481 602.324 361.823 593.906 352.675 586.33C364.223 605.187 363.976 614.508 363.984 635.886L363.95 666.359C363.93 677.477 365.738 695.457 359.355 704.374C355.544 709.606 349.788 713.084 343.384 714.024C337.038 714.977 330.575 713.344 325.443 709.491C312.988 700.158 315.563 682.572 315.599 668.626L315.642 632.513L315.676 599.921C315.686 593.57 315.449 587.163 316.114 580.845C317.582 566.922 327.842 558.568 341.221 557.161Z"/><path fill="#0E2FF4" d="M430.371 507.857L430.403 508.626C431.814 548.651 383.022 547.268 382.046 511.376C380.795 465.323 381.075 425.191 417.204 390.311C435.564 372.276 459.599 361.152 485.23 358.826C493.561 358.062 501.868 358.314 510.226 358.429C506.662 373.322 502.581 394.336 500.845 409.197C461.803 407.101 434.899 431.491 430.576 469.896C430.533 481.252 430.966 496.862 430.371 507.857Z"/><path fill="#FE572E" d="M536.768 520.121C543.499 449.145 597.511 358.447 651.867 312.467C662.982 303.065 677.874 292.846 690.491 285.597C700.06 280.1 713.626 285.771 720.119 294.202C724.645 300.103 726.564 307.597 725.431 314.947C724.405 321.653 720.664 327.64 715.087 331.503C711.607 333.945 704.922 336.848 700.89 339.126C691.504 344.399 682.497 350.321 673.934 356.846C626.835 392.585 594.252 436.83 561.507 485.342C553.699 496.91 546.948 509.098 538.653 520.238L536.768 520.121Z"/><path fill="#FE572E" d="M761.325 400.73C761.788 400.654 761.972 400.607 762.494 400.615C778.564 400.851 790.126 414.456 788.771 430.226C788.682 431.247 788.539 432.264 788.342 433.271C786.003 444.614 776.712 453.116 765.047 453.767C760.293 454.032 755.656 453.226 750.945 452.936C686.52 448.967 617.069 487.036 569.137 526.602C563.458 531.115 557.727 535.561 551.944 539.941C557.681 521.002 572.02 501.839 585.098 487.208C621.897 446.04 672.76 412.615 727.851 403.384C739.355 401.457 749.681 401.237 761.325 400.73Z"/><path fill="#FE572E" d="M581.571 247.603C592.755 246.643 601.297 250.434 607.001 260.461C617.352 278.409 603.261 291.295 595.176 306.364C564.217 364.063 542.96 426.619 524.226 489.13C522.507 494.797 519.742 503.591 516.788 508.402C516.354 506.822 515.953 505.233 515.583 503.637C508.346 471.918 513.928 429.163 519.283 397.479C521.035 387.112 522.855 376.06 525.284 365.853C531.014 342.088 538.202 318.698 546.807 295.817C549.629 288.343 552.564 281.051 555.888 273.8C562.403 259.585 564.91 251.283 581.571 247.603Z"/><path fill="#FE572E" d="M669.78 515.209C711.009 511.705 759.748 530.003 792.303 554.854C799.911 560.663 801.468 575.858 798.091 584.274C795.453 590.952 790.196 596.257 783.544 598.956C766.147 605.96 758.62 593.161 746.692 585.058C737.39 578.739 725.445 572.699 715.124 568.22C669.341 547.172 608.551 548.71 560.683 560.724C561.978 559.08 563.312 557.468 564.685 555.888C571.624 547.953 579.593 543.158 588.827 538.311C614.711 524.722 640.606 517.029 669.78 515.209Z"/><path fill="#0E2FF4" d="M337.804 363.639C348.012 363.03 360.804 370.931 362.325 380.539C364.366 393.428 363.612 410.655 363.765 423.77C363.997 443.32 364.071 462.871 363.988 482.423C363.974 493.111 364.177 503.793 363.603 514.467C362.876 528.004 355.48 535.577 342.496 538.49C324.345 539.135 315.589 527.118 315.675 510.427C315.709 503.808 315.584 497.001 315.572 490.358L315.665 439.77L315.672 406.162C315.653 387.535 313.262 367.195 337.804 363.639Z"/><path fill="#FD664F" d="M538.653 520.238C538.453 520.516 537.266 522.485 536.666 522.12C536.343 521.549 536.609 520.729 536.768 520.121L538.653 520.238Z"/></svg>